<svg width="24" height="24" viewBox="0 0 24 24" fill="none" xmlns="http://www.w3.org/2000/svg">
  <path d="M21 16V8C21 6.9 20.1 6 19 6H15L12 3L9 6H5C3.89 6 3 6.9 3 8V16C3 17.1 3.89 18 5 18H19C20.1 18 21 17.1 21 16Z" fill="currentColor" opacity="0.8"/>
  <circle cx="12" cy="12" r="3.5" fill="none" stroke="currentColor" stroke-width="1.5"/>
  <path d="M21 16V8C21 6.9 20.1 6 19 6H15L12 3L9 6H5C3.89 6 3 6.9 3 8V16C3 17.1 3.89 18 5 18H19C20.1 18 21 17.1 21 16Z" stroke="currentColor" stroke-width="1.5"/>
  <path d="M3 21H21" stroke="currentColor" stroke-width="1.5" stroke-linecap="round"/>
</svg>
