<svg width="24" height="24" viewBox="0 0 24 24" fill="none" xmlns="http://www.w3.org/2000/svg">
  <circle cx="12" cy="8" r="3" fill="currentColor" opacity="0.8"/>
  <path d="M7 14C7 14 8 12 12 12C16 12 17 14 17 14L15 20C15 21 13.5 22 12 22C10.5 22 9 21 9 20L7 14Z" fill="currentColor" opacity="0.8"/>
  <path d="M12 11C14.21 11 16 9.21 16 7C16 4.79 14.21 3 12 3C9.79 3 8 4.79 8 7C8 9.21 9.79 11 12 11Z" stroke="currentColor" stroke-width="1.5"/>
  <path d="M7 14C7 14 8 12 12 12C16 12 17 14 17 14L15 20C15 21 13.5 22 12 22C10.5 22 9 21 9 20L7 14Z" stroke="currentColor" stroke-width="1.5" stroke-linejoin="round"/>
</svg>
