<svg width="24" height="24" viewBox="0 0 24 24" fill="none" xmlns="http://www.w3.org/2000/svg">
  <path d="M12 2C10.9 2 10 2.9 10 4C10 5.1 10.9 6 12 6C13.1 6 14 5.1 14 4C14 2.9 13.1 2 12 2Z" fill="currentColor" opacity="0.8"/>
  <path d="M18 8H16V15C16 16.1 15.1 17 14 17H13V21H15V17H17C18.1 17 19 16.1 19 15V9C19 8.45 18.55 8 18 8Z" fill="currentColor" opacity="0.8"/>
  <path d="M8 8H6C5.45 8 5 8.45 5 9V15C5 16.1 5.9 17 7 17H9V21H11V17H10C8.9 17 8 16.1 8 15V8Z" fill="currentColor" opacity="0.8"/>
  <path d="M12 2C10.9 2 10 2.9 10 4C10 5.1 10.9 6 12 6C13.1 6 14 5.1 14 4C14 2.9 13.1 2 12 2Z" stroke="currentColor" stroke-width="1.5"/>
  <path d="M12 6V14M8 8H16V15C16 16.1 15.1 17 14 17H10C8.9 17 8 16.1 8 15V8Z" stroke="currentColor" stroke-width="1.5" stroke-linecap="round" stroke-linejoin="round"/>
</svg>
